<svg width="40" height="45" viewBox="0 0 40 45" fill="none" xmlns="http://www.w3.org/2000/svg">
<path d="M20.8071 0.614754L19.7289 0L18.6649 0.614754L19.7289 1.22478L20.8071 0.614754ZM21.4313 3.34332L22.4905 2.72856L21.4313 2.11381L20.3342 2.72856L21.4313 3.34332ZM17.3786 8.70113L20.8071 10.6731L24.2213 8.70113L20.8071 6.73392L17.3786 8.70113ZM30.4303 11.5905L35.1214 8.88083L30.4303 6.17591L25.744 8.88083L30.4303 11.5905ZM27.5646 4.52554L25.2002 3.17308L22.8357 4.52554L25.2002 5.88272L27.5646 4.52554ZM31.0451 17.3644L29.1062 18.4852L20.6983 23.3417V45L29.1015 40.1482V25.1009L31.0403 23.9801V32.4165V39.0369L39.4578 34.1709V12.5079L31.0451 17.3644ZM19.3553 2.83733L17.9035 2.00504L16.4518 2.83733L17.9035 3.67907L19.3553 2.83733ZM10.3704 33.5325L8.43159 32.4117V17.3644L0 12.5079V34.1709L8.40794 39.0274L10.3468 40.1434L18.7595 45V23.3417L10.3468 18.4852L10.3704 33.5325ZM38.512 10.8339L36.5022 9.67528L30.4303 13.1652L24.8171 9.93064L20.8071 12.2478L14.6595 8.70113L16.2721 7.75536L14.1866 6.56368L12.9382 7.2872L10.0252 5.60845L0.96942 10.8291L19.7289 21.6583L29.1062 16.2437L38.512 10.8339ZM20.7078 5.28689L18.5798 4.05738L16.4518 5.28689L18.5798 6.51639L20.7078 5.28689ZM14.4704 4.814L12.924 3.9297L11.3824 4.81873L12.924 5.71248L14.4704 4.814Z" fill="url(#paint0_linear)"/>
<defs>
<linearGradient id="paint0_linear" x1="4.27018" y1="38.441" x2="35.1828" y2="7.52838" gradientUnits="userSpaceOnUse">
<stop stop-color="#FFE520"/>
<stop offset="1" stop-color="#C60070"/>
</linearGradient>
</defs>
</svg>
